<?xml version="1.0" encoding="UTF-8" standalone="no"?>
<!-- Created with Inkscape (http://www.inkscape.org/) -->

<svg
   xmlns:dc="http://purl.org/dc/elements/1.1/"
   xmlns:cc="http://creativecommons.org/ns#"
   xmlns:rdf="http://www.w3.org/1999/02/22-rdf-syntax-ns#"
   xmlns:svg="http://www.w3.org/2000/svg"
   xmlns="http://www.w3.org/2000/svg"
   xmlns:sodipodi="http://sodipodi.sourceforge.net/DTD/sodipodi-0.dtd"
   xmlns:inkscape="http://www.inkscape.org/namespaces/inkscape"
   width="500"
   height="140"
   viewBox="0 0 132.29167 37.041666"
   version="1.1"
   id="svg8"
   inkscape:version="0.92.3 (2405546, 2018-03-11)"
   sodipodi:docname="proteindesigns.svg"
   inkscape:export-filename="C:\Users\awais\Desktop\ProteinDesigns\logo.png"
   inkscape:export-xdpi="48"
   inkscape:export-ydpi="48">
  <defs
     id="defs2" />
  <sodipodi:namedview
     id="base"
     pagecolor="#ffffff"
     bordercolor="#666666"
     borderopacity="1.0"
     inkscape:pageopacity="0.0"
     inkscape:pageshadow="2"
     inkscape:zoom="1"
     inkscape:cx="-154.5"
     inkscape:cy="333.8214"
     inkscape:document-units="mm"
     inkscape:current-layer="layer1"
     showgrid="false"
     units="px"
     inkscape:window-width="2560"
     inkscape:window-height="1387"
     inkscape:window-x="-8"
     inkscape:window-y="-8"
     inkscape:window-maximized="1"
     showguides="true"
     inkscape:guide-bbox="true">
    <sodipodi:guide
       position="55.827085,6.6145832"
       orientation="0,1"
       id="guide4744"
       inkscape:locked="false" />
  </sodipodi:namedview>
  <metadata
     id="metadata5">
    <rdf:RDF>
      <cc:Work
         rdf:about="">
        <dc:format>image/svg+xml</dc:format>
        <dc:type
           rdf:resource="http://purl.org/dc/dcmitype/StillImage" />
        <dc:title></dc:title>
      </cc:Work>
    </rdf:RDF>
  </metadata>
  <g
     inkscape:label="Layer 1"
     inkscape:groupmode="layer"
     id="layer1"
     transform="translate(0,-259.95834)">
    <text
       xml:space="preserve"
       style="font-style:normal;font-variant:normal;font-weight:normal;font-stretch:normal;font-size:10.58333302px;line-height:1.25;font-family:EBI-Conceptual;-inkscape-font-specification:EBI-Conceptual;letter-spacing:0px;word-spacing:0px;fill:#000000;fill-opacity:1;stroke:none;stroke-width:0.26458332"
       x="90.337097"
       y="193.03215"
       id="text4573"><tspan
         sodipodi:role="line"
         id="tspan4571"
         x="90.337097"
         y="204.27695"
         style="stroke-width:0.26458332" /></text>
    <g
       id="g4722"
       transform="translate(7.4083334,6.6145833)">
      <path
         inkscape:connector-curvature="0"
         id="path4569"
         d="m 16.429841,262.97968 c 0.66934,0.45785 1.020175,0.63959 1.150692,0.70096 0.130517,0.0646 1.580552,0.70443 1.843976,0.7906 0.259812,0.0861 1.126742,0.53571 1.366222,0.61946 0.189168,0.0682 0.399924,0.18776 0.524454,0.25734 0.08499,0.11462 0.155679,0.2279 0.144862,0.27829 a 0.49452128,0.48734023 0 0 1 -0.159254,0.33761 c -0.148484,0.12622 -0.833382,0.39871 -1.071661,0.48376 -0.21673,0.0825 -1.282404,0.51569 -1.56379,0.62188 -0.09938,0.0357 -0.468179,0.2114 -0.926777,0.43083 -0.296967,-0.10526 -0.657369,-0.23236 -0.787881,-0.29257 -0.239493,-0.10837 -1.129137,-0.55699 -1.430879,-0.81303 -0.306516,-0.25734 -0.613063,-0.5664 -0.737594,-0.74814 -0.18677,-0.27383 -0.311313,-1.20479 -0.2814,-1.55996 0.01539,-0.2123 0.05625,-3.0739 0.05625,-3.0739 0,0 0.862119,1.27796 1.872718,1.96705 z"
         style="fill:#225500;stroke-width:1.18866241" />
      <path
         inkscape:connector-curvature="0"
         id="path4567"
         d="m 14.255386,260.32822 c -0.01313,-0.0268 -0.951925,-1.7806 -2.308566,-1.90097 -1.406929,-0.12754 -2.3744218,0.41878 -2.9443749,1.66851 -0.2191281,0.47792 -0.3568405,1.05846 -0.4562085,1.79242 h 2.3037784 v 17.73541 h 2.721663 l -4.6973564,4.7047 c 0.082637,0.96993 0.1652285,1.73693 0.2442899,2.19005 a 0.58552274,0.57702025 0 0 1 -0.580733,0.67495 0.58791753,0.57938026 0 0 1 -0.578336,-0.48023 c -0.085035,-0.49563 -0.1759984,-1.35111 -0.2658313,-2.43909 L 3.049042,279.62359 h 2.657007 v -17.73657 h 1.655989 c 0.1113735,-0.9157 0.280177,-1.6414 0.5663595,-2.26796 0.7795017,-1.70509 2.2031975,-2.51223 4.1214115,-2.34468 2.005625,0.1784 3.198222,2.43079 3.247316,2.52522 a 0.58672014,0.57820025 0 0 1 -1.041725,0.52862 z"
         style="fill:#338000;stroke-width:1.18866241" />
      <path
         inkscape:connector-curvature="0"
         id="path4563"
         d="m 22.204817,268.37703 c 0,0.34341 -0.02851,1.11394 -0.08861,1.36997 -0.05865,0.25734 -0.172425,0.55464 -0.296968,0.69151 -0.1736,0.18999 -0.778302,0.57348 -1.147098,0.70327 -0.197587,0.0686 -0.613065,0.24663 -0.996226,0.40584 a 53.626219,52.847501 0 0 1 -0.854937,0.34341 c -1.283598,0.51092 -2.574384,1.02778 -2.739621,1.10212 -0.349645,0.17126 -0.956717,0.49678 -1.15548,0.76937 -0.08024,0.11818 -0.168849,0.24082 -0.2275,0.40139 a 10.372973,10.222345 0 0 1 -0.155679,-1.0561 c -0.02172,-0.36793 0.02851,-1.37002 0.114949,-1.7653 0.07186,-0.3385 0.229899,-0.8838 0.549603,-1.19889 0.132915,-0.12844 0.443052,-0.35634 0.81422,-0.60413 0.825001,-0.40228 2.630663,-1.28033 2.827037,-1.35232 0.286196,-0.10747 1.355442,-0.5416 1.561391,-0.62067 0.25506,-0.0981 0.910018,-0.33761 1.169848,-0.54045 a 0.86571158,0.8531404 0 0 0 0.267009,-0.46252 c 0.07902,0.12175 0.165228,0.27026 0.215507,0.38933 0.155679,0.38846 0.14251,1.08563 0.14251,1.42426 z"
         style="fill:#338000;stroke-width:1.18866241" />
    </g>
    <path
       style="fill:#0088aa;stroke-width:0.8854267"
       d="m 69.768598,268.8362 c -0.868285,0.24448 -1.476553,0.91416 -1.677393,1.7131 h -0.30265 c -1.42708,0 -2.586545,-1.14262 -2.586547,-2.54898 l -0.953509,0.68096 c 0,1.93374 1.488624,2.83504 3.540056,2.83504 h 0.262819 c 0.0071,0.0442 0.01272,0.0885 0.02233,0.13263 0.17833,0.87898 0.892153,1.4942 1.694894,1.66999 v 1.758 c -1.248709,0.26368 -1.962454,1.49417 -1.694894,2.72473 0.17833,0.87898 0.892153,1.49419 1.694894,1.66998 v 1.758 c -1.248709,0.26369 -1.962454,1.49417 -1.694894,2.72473 0.17833,0.79108 0.892153,1.49419 1.694894,1.66999 v 0.35178 c 0,0.30552 -0.05749,0.59728 -0.157813,0.86889 -0.770806,0.19061 -1.406258,0.75142 -1.620967,1.55104 -0.144462,0.0469 -0.294599,0.0804 -0.448993,0.10173 h -0.02445 c -2.051432,0 -3.540057,0.90101 -3.540057,2.83475 l 0.95321,0.68096 c 0,-1.40635 1.159766,-2.54899 2.586847,-2.54899 h 0.356662 c 0.178384,0.79109 0.891857,1.49424 1.694593,1.66999 1.248694,0.26367 2.497312,-0.43941 2.764875,-1.66999 h 1.78391 c 0.178384,0.79109 0.802961,1.49424 1.694894,1.66999 1.248691,0.26367 2.497306,-0.43941 2.764877,-1.66999 1.302789,-0.50589 2.468903,-0.60772 3.954652,-1.65451 l 0.474945,-0.0425 c 1.248715,-0.26367 1.962454,-1.49416 1.694894,-2.72473 -0.144405,-0.71177 -0.639952,-1.25043 -1.249521,-1.52308 l -0.0078,-2.04556 c 0.972499,-0.42764 1.491857,-1.50591 1.257365,-2.58436 -0.146247,-0.64878 -0.652801,-1.23768 -1.273055,-1.52577 l -0.0078,-2.03397 c 0.987225,-0.42063 1.517224,-1.50609 1.2809,-2.59299 -0.178326,-0.87899 -0.892139,-1.49419 -1.694893,-1.66999 h -0.934802 c -0.824962,-0.54962 -1.984207,-0.4404 -3.106747,-0.40352 -0.267565,-1.23057 -1.632055,-2.04784 -2.880745,-1.78417 -0.891935,0.17574 -1.516209,0.8789 -1.694593,1.66999 H 72.60504 c -0.179765,-0.82677 -0.80321,-1.41366 -1.571179,-1.63103 -0.09298,-0.0335 -0.187927,-0.061 -0.284242,-0.0821 v -0.088 z m 2.925406,2.68012 h 1.783906 c 0.26756,1.23059 1.516178,1.93366 2.764878,1.66999 0.80273,-0.17573 1.516509,-0.87889 1.694895,-1.66999 l 2.168631,0.0413 c -0.653247,0.55828 -0.968328,1.43932 -0.776385,2.32211 0.17833,0.87896 0.892152,1.49419 1.694893,1.66998 v 1.75801 c -1.248708,0.26367 -1.962453,1.49417 -1.694893,2.72473 0.17833,0.87898 0.892152,1.49419 1.694893,1.66998 v 1.758 c -1.248708,0.26368 -1.962453,1.49416 -1.694893,2.72473 0.114581,0.50828 0.450675,0.97938 0.888935,1.29858 -0.928668,0.71964 -1.719831,0.76172 -2.553656,1.01401 -0.178383,-0.7911 -0.891864,-1.49455 -1.694591,-1.67029 -1.248705,-0.26367 -2.497319,0.4397 -2.764879,1.67029 h -1.783907 c -0.178392,-0.7911 -0.802671,-1.49455 -1.694594,-1.67029 -0.01298,-0.003 -0.02595,-0.003 -0.03892,-0.006 0.03937,-0.2686 0.06126,-0.55002 0.06126,-0.8451 v -0.4395 c 1.248715,-0.26368 1.962152,-1.49416 1.694592,-2.72472 -0.178326,-0.87898 -0.89184,-1.49449 -1.694592,-1.6703 v -1.7577 c 1.248715,-0.26368 1.962152,-1.49446 1.694592,-2.72503 -0.178326,-0.79106 -0.89184,-1.49419 -1.694592,-1.66998 v -1.75801 c 0.01322,-0.003 0.02552,-0.008 0.03862,-0.01 0.07032,-0.009 0.140723,-0.0197 0.211222,-0.0345 0.89192,-0.17573 1.5162,-0.87889 1.694591,-1.66999 z"
       id="path4575"
       inkscape:connector-curvature="0"
       sodipodi:nodetypes="ccsccscccccccccscccsccsccccccccccccccccccccccccccccccccccccccccccccsccccccccccc" />
    <text
       xml:space="preserve"
       style="font-style:normal;font-variant:normal;font-weight:normal;font-stretch:normal;font-size:5.63320589px;line-height:1.25;font-family:EBI-Conceptual;-inkscape-font-specification:EBI-Conceptual;letter-spacing:0px;word-spacing:0px;fill:#112b00;fill-opacity:1;stroke:none;stroke-width:0.14083014;"
       x="24.057709"
       y="292.62381"
       id="text4665"
       transform="scale(1.0073406,0.99271289)"><tspan
         sodipodi:role="line"
         id="tspan4663"
         x="24.057709"
         y="292.62381"
         style="font-style:normal;font-variant:normal;font-weight:normal;font-stretch:normal;font-size:13.51969433px;font-family:'Segoe UI';-inkscape-font-specification:'Segoe UI';stroke-width:0.14083014;fill:#112b00;">rotein</tspan></text>
    <text
       xml:space="preserve"
       style="font-style:normal;font-variant:normal;font-weight:normal;font-stretch:normal;font-size:5.72911739px;line-height:1.25;font-family:EBI-Conceptual;-inkscape-font-specification:EBI-Conceptual;letter-spacing:0px;word-spacing:0px;fill:#004455;fill-opacity:1;stroke:none;stroke-width:0.14322792"
       x="84.61541"
       y="292.76828"
       id="text4669"
       transform="scale(1.0073406,0.99271289)"><tspan
         sodipodi:role="line"
         id="tspan4667"
         x="84.61541"
         y="292.76828"
         style="font-style:normal;font-variant:normal;font-weight:normal;font-stretch:normal;font-size:13.74988079px;font-family:'Segoe UI';-inkscape-font-specification:'Segoe UI';fill:#004455;stroke-width:0.14322792">esigns</tspan></text>
  </g>
</svg>
